<?xml version="1.0" encoding="UTF-8"?>
<svg id="Layer_1" data-name="Layer 1" xmlns="http://www.w3.org/2000/svg" viewBox="0 0 523.46 500.08">
  <defs>
    <style>
      .cls-1 {
        fill: #f8f9fa;
      }

      .cls-1, .cls-2 {
        stroke-width: 0px;
      }

      .cls-2 {
        fill: #e53935;
      }
    </style>
  </defs>
  <path class="cls-2" d="M190.49,3.87c74.41-7.68,128.68-1.87,144.54,0,48.25,5.7,72.38,8.55,98.35,24.37,36.52,22.24,54.55,53.98,61.58,66.71,17.65,31.95,20.87,59.55,25.66,100.49,1.66,14.25,5.44,52.59,0,102.63-4.69,43.13-7.82,71.92-26.09,105.2-6.65,12.12-21.38,38.3-50.46,59.44-29.91,21.75-58.19,25.93-109.9,32.93-15.87,2.15-70.48,8.82-143.68,0-48.56-5.85-73.41-9.13-101.35-26.51-6.66-4.14-36.89-23.62-59.01-62.01-16.74-29.04-20.25-54-25.66-92.37C.06,283.43-1.63,247.87,1.91,208.27c4.86-54.29,8-89.38,32.5-126.15,23.71-35.58,54.19-52.87,62.43-57.3,25.48-13.7,48.55-16.3,93.65-20.95Z"/>
  <g>
    <path class="cls-1" d="M451.25,229.5c-28.53-65.45-57.07-130.91-85.6-196.36-13.7,30.98-27.39,61.95-41.09,92.93-.57,2.18-3.28,11.49-12.51,17.01-5.41,3.23-10.67,3.73-13.4,3.79-23.98-.06-47.95-.12-71.93-.18-2.11.09-12.81.35-21.06-7.71-4.44-4.34-6.27-9.23-7.05-11.91-13.7-30.85-27.39-61.71-41.09-92.56-28.44,64.72-56.88,129.45-85.33,194.17,17.17.04,34.34.07,51.52.11l-28,46.93c5.88-1.05,27.56-4.19,47.73,9.08,9.16,6.02,14.87,13.36,18.18,18.54,14.68,22.79,29.35,45.58,44.03,68.37h18.87v-99.82c-17.77-14.33-35.54-28.66-53.31-43,17.77.04,35.54.08,53.31.12v-7.3h9.85c0,56.79,0,113.59,0,170.38,0,4.91,3.98,8.89,8.89,8.89h36.65c4.91,0,8.89-3.98,8.89-8.89v-170.38h9.85v7.46c17.84.04,35.68.08,53.52.12-17.84,14.2-35.68,28.4-53.52,42.6v99.82h18.87c14.68-22.79,29.35-45.58,44.03-68.37,3.31-5.18,9.02-12.52,18.18-18.54,20.17-13.27,41.85-10.13,47.73-9.08l-27.64-46.33c17.14.04,34.29.07,51.43.11Z"/>
    <circle class="cls-1" cx="261.59" cy="439.74" r="27.21" transform="translate(-244.78 513.14) rotate(-67.5)"/>
  </g>
</svg>